HIERARCHY
ROOT joint_Root
{
	OFFSET 0.0 0.0 0.0
	CHANNELS 6 Xposition Yposition Zposition Zrotation Xrotation Yrotation 
	JOINT Hips
	{
		OFFSET 4.5925 91.4895 -427.239
		CHANNELS 6 Xposition Yposition Zposition Zrotation Xrotation Yrotation 
		JOINT Spine
		{
			OFFSET 15.7357 0.0 0.0
			CHANNELS 6 Xposition Yposition Zposition Zrotation Xrotation Yrotation 
			JOINT Chest
			{
				OFFSET 8.98455 -0.406207 0.0
				CHANNELS 6 Xposition Yposition Zposition Zrotation Xrotation Yrotation 
				JOINT Neck
				{
					OFFSET 16.3773 0.0 0.0
					CHANNELS 6 Xposition Yposition Zposition Zrotation Xrotation Yrotation 
					JOINT Head
					{
						OFFSET 6.45672 0.0 0.0
						CHANNELS 6 Xposition Yposition Zposition Zrotation Xrotation Yrotation 
						End Site
						{
							OFFSET 0.0 0.0 0.0
						}
					}
				}
				JOINT Shoulder_L
				{
					OFFSET 12.9942 -0.242716 4.98039
					CHANNELS 6 Xposition Yposition Zposition Zrotation Xrotation Yrotation 
					JOINT UpperArm_L
					{
						OFFSET 5.34809 0.0 0.0
						CHANNELS 6 Xposition Yposition Zposition Zrotation Xrotation Yrotation 
						JOINT LowerArm_L
						{
							OFFSET 24.3286 1.87007e-05 0.0
							CHANNELS 6 Xposition Yposition Zposition Zrotation Xrotation Yrotation 
							JOINT Hand_L
							{
								OFFSET 22.2916 0.0 0.0
								CHANNELS 6 Xposition Yposition Zposition Zrotation Xrotation Yrotation 
								End Site
								{
									OFFSET 0.0 0.0 0.0
								}
							}
						}
					}
				}
				JOINT Shoulder_R
				{
					OFFSET 12.9945 -0.242716 -4.98039
					CHANNELS 6 Xposition Yposition Zposition Zrotation Xrotation Yrotation 
					JOINT UpperArm_R
					{
						OFFSET -5.34813 0.0 0.0
						CHANNELS 6 Xposition Yposition Zposition Zrotation Xrotation Yrotation 
						JOINT LowerArm_R
						{
							OFFSET -24.3289 0.000322201 0.0
							CHANNELS 6 Xposition Yposition Zposition Zrotation Xrotation Yrotation 
							JOINT Hand_R
							{
								OFFSET -22.2915 -0.000108084 0.0
								CHANNELS 6 Xposition Yposition Zposition Zrotation Xrotation Yrotation 
								End Site
								{
									OFFSET 0.0 0.0 0.0
								}
							}
						}
					}
				}
			}
		}
		JOINT UpperLeg_L
		{
			OFFSET -2.19248 -6.46944 0.0
			CHANNELS 6 Xposition Yposition Zposition Zrotation Xrotation Yrotation 
			JOINT LowerLeg_L
			{
				OFFSET 39.0811 0.0 -1.23785e-05
				CHANNELS 6 Xposition Yposition Zposition Zrotation Xrotation Yrotation 
				JOINT Foot_L
				{
					OFFSET 40.9854 0.0 -1.26872e-05
					CHANNELS 6 Xposition Yposition Zposition Zrotation Xrotation Yrotation 
					JOINT Toes_L
					{
						OFFSET 11.7543 0.0 0.0
						CHANNELS 6 Xposition Yposition Zposition Zrotation Xrotation Yrotation 
						End Site
						{
							OFFSET 0.0 0.0 0.0
						}
					}
				}
			}
		}
		JOINT UpperLeg_R
		{
			OFFSET -2.19251 6.46944 0.0
			CHANNELS 6 Xposition Yposition Zposition Zrotation Xrotation Yrotation 
			JOINT LowerLeg_R
			{
				OFFSET -39.0811 -0.00228153 -0.0401928
				CHANNELS 6 Xposition Yposition Zposition Zrotation Xrotation Yrotation 
				JOINT Foot_R
				{
					OFFSET -40.9854 0.0 0.0
					CHANNELS 6 Xposition Yposition Zposition Zrotation Xrotation Yrotation 
					JOINT Toes_R
					{
						OFFSET -11.7543 0.0 0.0
						CHANNELS 6 Xposition Yposition Zposition Zrotation Xrotation Yrotation 
						End Site
						{
							OFFSET 0.0 0.0 0.0
						}
					}
				}
			}
		}
	}
}
MOTION
Frames:	6
Frame Time:	0.0333333
0.000000 0.000000 0.000000 0.000000 0.000000 -0.000000 -0.470528 90.822200 -6.901050 89.360100 -2.613570 9.437050 15.735700 0.000005 -0.000001 89.459300 76.251200 -89.802300 8.984550 -0.406207 -0.000000 19.729700 -0.289468 -0.637743 16.377300 -0.000001 -0.000001 10.762200 -4.372120 2.602620 6.456720 -0.000001 -0.000000 -10.011700 -4.228130 0.801592 12.994200 -0.242716 4.980390 -87.809600 -6.861960 -72.248900 5.348090 -0.000007 -0.000001 -77.017600 -17.394600 -83.727600 24.328600 0.000019 0.000005 44.053600 -3.688670 -93.804400 22.291600 -0.000001 0.000005 22.559200 4.911110 9.155360 12.994500 -0.242716 -4.980390 90.683600 -3.197120 -77.924200 -5.348130 -0.000001 -0.000004 -67.511800 -21.271100 -83.348900 -24.328900 0.000322 -0.000009 20.037900 -0.642107 -91.760700 -22.291500 -0.000108 -0.000004 29.900100 5.289330 0.369555 -2.192480 -6.469440 -0.000000 -175.432000 -11.980400 -6.406870 39.081100 -0.000007 -0.000012 -0.137420 0.216460 32.409800 40.985400 -0.000006 -0.000013 0.681176 5.699810 -66.501200 11.754300 -0.000000 0.000003 -0.000081 -0.000860 -16.610700 -2.192510 6.469440 -0.000001 176.122000 21.496700 174.674000 -39.081100 -0.002282 -0.040193 -0.083924 0.139521 32.011700 -40.985400 0.000008 0.000006 5.567860 12.936300 -67.647500 -11.754300 -0.000006 -0.000006 -0.003072 -0.041410 -18.257200
0.000000 0.000000 0.000000 0.000000 0.000000 -0.000000 -0.515763 90.820100 -6.920450 89.363100 -2.612020 9.466760 15.735700 0.000005 -0.000001 89.476000 76.255800 -89.821200 8.984550 -0.406207 -0.000000 19.720700 -0.281765 -0.643477 16.377300 -0.000001 -0.000001 10.689500 -4.344350 2.595880 6.456720 -0.000001 -0.000000 -9.992020 -4.178820 0.813312 12.994200 -0.242716 4.980390 -87.818600 -6.808360 -72.187000 5.348090 -0.000007 -0.000001 -77.059500 -17.403100 -83.694300 24.328600 0.000019 0.000005 43.979900 -3.705080 -93.831000 22.291600 -0.000001 0.000005 22.624600 4.913550 9.106290 12.994500 -0.242716 -4.980390 90.670700 -3.138120 -77.928500 -5.348130 -0.000001 -0.000004 -67.300700 -21.230500 -83.241700 -24.328900 0.000322 -0.000009 20.092700 -0.638651 -91.746000 -22.291500 -0.000108 -0.000004 29.926700 5.290050 0.349524 -2.192480 -6.469440 -0.000000 -175.396000 -11.970500 -6.400010 39.081100 -0.000007 -0.000012 -0.138190 0.217663 32.410900 40.985400 -0.000006 -0.000013 0.649014 5.715650 -66.472800 11.754300 -0.000000 0.000003 -0.000083 -0.000875 -16.611300 -2.192510 6.469440 -0.000001 176.138000 21.531400 174.690000 -39.081100 -0.002282 -0.040193 -0.085269 0.141623 32.020700 -40.985400 0.000008 0.000006 5.575100 12.951200 -67.644300 -11.754300 -0.000006 -0.000006 -0.003051 -0.041177 -18.247700
0.000000 0.000000 0.000000 0.000000 0.000000 -0.000000 -0.554881 90.823400 -6.940800 89.367600 -2.593690 9.489100 15.735700 0.000005 -0.000001 89.568300 76.258700 -89.920300 8.984550 -0.406207 -0.000000 19.715200 -0.239079 -0.664464 16.377300 -0.000001 -0.000001 10.642200 -4.340310 2.616580 6.456720 -0.000001 -0.000000 -9.983860 -4.203680 0.863577 12.994200 -0.242716 4.980390 -87.816900 -6.822030 -72.207200 5.348090 -0.000007 -0.000001 -77.108400 -17.390500 -83.679900 24.328600 0.000019 0.000005 43.990300 -3.716080 -93.841000 22.291600 -0.000001 0.000005 22.591600 4.910520 9.167320 12.994500 -0.242716 -4.980390 90.662600 -3.098030 -77.920600 -5.348130 -0.000001 -0.000004 -67.141500 -21.237300 -83.136400 -24.328900 0.000322 -0.000009 20.155400 -0.634548 -91.729000 -22.291500 -0.000108 -0.000004 29.897700 5.291800 0.300906 -2.192480 -6.469440 -0.000000 -175.368000 -11.970100 -6.373970 39.081100 -0.000007 -0.000012 -0.140668 0.221789 32.384900 40.985400 -0.000006 -0.000013 0.623673 5.730010 -66.444900 11.754300 -0.000000 0.000003 -0.000086 -0.000905 -16.612400 -2.192510 6.469440 -0.000001 176.170000 21.550900 174.698000 -39.081100 -0.002282 -0.040193 -0.080219 0.133540 32.022100 -40.985400 0.000008 0.000006 5.693630 12.915300 -67.664600 -11.754300 -0.000006 -0.000006 -0.003006 -0.040675 -18.227300
0.000000 0.000000 0.000000 0.000000 0.000000 -0.000000 -0.591899 90.817200 -6.966830 89.371600 -2.524880 9.514120 15.735700 0.000005 -0.000001 89.566500 76.266000 -89.914800 8.984550 -0.406207 -0.000000 19.700700 -0.239411 -0.657206 16.377300 -0.000001 -0.000001 10.609600 -4.343240 2.604800 6.456720 -0.000001 -0.000000 -9.969460 -4.231140 0.877515 12.994200 -0.242716 4.980390 -87.812100 -6.830420 -72.191200 5.348090 -0.000007 -0.000001 -77.118100 -17.356500 -83.629600 24.328600 0.000019 0.000005 44.090700 -3.696740 -93.807700 22.291600 -0.000001 0.000005 22.507600 4.909990 9.177850 12.994500 -0.242716 -4.980390 90.664500 -3.102400 -77.904800 -5.348130 -0.000001 -0.000004 -67.074600 -21.206400 -83.115100 -24.328900 0.000322 -0.000009 20.153700 -0.622651 -91.696800 -22.291500 -0.000108 -0.000004 29.802100 5.291710 0.303414 -2.192480 -6.469440 -0.000000 -175.361000 -11.894500 -6.389880 39.081100 -0.000007 -0.000012 -0.137406 0.216438 32.409700 40.985400 -0.000006 -0.000013 0.603367 5.736810 -66.430500 11.754300 -0.000000 0.000003 -0.000085 -0.000899 -16.612100 -2.192510 6.469440 -0.000001 176.173000 21.586400 174.700000 -39.081100 -0.002282 -0.040193 -0.083600 0.138777 32.053500 -40.985400 0.000008 0.000006 5.686240 12.888500 -67.667900 -11.754300 -0.000006 -0.000006 -0.003100 -0.041724 -18.270000
0.000000 0.000000 0.000000 0.000000 0.000000 -0.000000 -0.617159 90.820800 -6.983860 89.390800 -2.497440 9.558070 15.735700 0.000005 -0.000001 89.575700 76.257700 -89.932600 8.984550 -0.406207 -0.000000 19.717300 -0.236133 -0.674847 16.377300 -0.000001 -0.000001 10.609200 -4.364930 2.594580 6.456720 -0.000001 -0.000000 -9.972730 -4.246650 0.894658 12.994200 -0.242716 4.980390 -87.811000 -6.824010 -72.167500 5.348090 -0.000007 -0.000001 -77.064800 -17.352100 -83.613700 24.328600 0.000019 0.000005 44.092900 -3.696430 -93.807100 22.291600 -0.000001 0.000005 22.408900 4.908640 9.205110 12.994500 -0.242716 -4.980390 90.659000 -3.081690 -77.922500 -5.348130 -0.000001 -0.000004 -67.078900 -21.197600 -83.225600 -24.328900 0.000322 -0.000009 20.365900 -0.612188 -91.649400 -22.291500 -0.000108 -0.000004 29.648400 5.286430 0.449621 -2.192480 -6.469440 -0.000000 -175.350000 -11.892100 -6.343410 39.081100 -0.000007 -0.000012 -0.138105 0.217840 32.373800 40.985400 -0.000006 -0.000013 0.593063 5.787960 -66.394800 11.754300 -0.000000 0.000003 -0.000084 -0.000890 -16.611800 -2.192510 6.469440 -0.000001 176.166000 21.597700 174.738000 -39.081100 -0.002282 -0.040193 -0.080004 0.133025 32.055000 -40.985400 0.000008 0.000006 5.764900 12.860500 -67.684100 -11.754300 -0.000006 -0.000006 -0.003068 -0.041368 -18.255500
0.000000 0.000000 0.000000 0.000000 0.000000 -0.000000 -0.643691 90.812800 -7.014750 89.401800 -2.411230 9.578680 15.735700 0.000005 -0.000001 89.545400 76.256500 -89.902300 8.984550 -0.406207 -0.000000 19.719600 -0.250382 -0.672389 16.377300 -0.000001 -0.000001 10.620200 -4.370900 2.608240 6.456720 -0.000001 -0.000000 -9.938640 -4.256530 0.870993 12.994200 -0.242716 4.980390 -87.811200 -6.829740 -72.182500 5.348090 -0.000007 -0.000001 -77.026800 -17.351900 -83.610800 24.328600 0.000019 0.000005 44.176800 -3.753880 -93.854800 22.291600 -0.000001 0.000005 22.248700 4.909810 9.181400 12.994500 -0.242716 -4.980390 90.664900 -3.099790 -77.887400 -5.348130 -0.000001 -0.000004 -67.176300 -21.159500 -83.361500 -24.328900 0.000322 -0.000009 20.258300 -0.610709 -91.654900 -22.291500 -0.000108 -0.000004 29.645300 5.288820 0.383518 -2.192480 -6.469440 -0.000000 -175.357000 -11.836200 -6.375030 39.081100 -0.000007 -0.000012 -0.137997 0.217400 32.406000 40.985400 -0.000006 -0.000013 0.585040 5.803790 -66.378000 11.754300 -0.000000 0.000003 -0.000086 -0.000904 -16.612300 -2.192510 6.469440 -0.000001 176.156000 21.616700 174.728000 -39.081100 -0.002282 -0.040193 -0.082676 0.137100 32.091400 -40.985400 0.000008 0.000006 5.686500 12.820600 -67.668600 -11.754300 -0.000006 -0.000006 -0.003004 -0.040644 -18.226000
